<?xml version="1.0" standalone="no"?>
<!DOCTYPE svg PUBLIC "-//W3C//DTD SVG 20010904//EN"
 "http://www.w3.org/TR/2001/REC-SVG-20010904/DTD/svg10.dtd">
<svg version="1.0" xmlns="http://www.w3.org/2000/svg"
 width="512.000000pt" height="512.000000pt" viewBox="0 0 512.000000 512.000000"
 preserveAspectRatio="xMidYMid meet">

<g transform="translate(0.000000,512.000000) scale(0.100000,-0.100000)"
fill="#000000" stroke="none">
<path d="M1927 5109 c-97 -23 -204 -105 -246 -188 -48 -93 -51 -129 -51 -569
l0 -414 -59 54 c-100 93 -270 168 -379 168 -59 0 -133 -41 -169 -93 l-28 -40
-6 -721 c-6 -826 -3 -793 -103 -1078 -95 -273 -156 -546 -171 -778 l-8 -105
-136 -184 c-75 -102 -141 -194 -148 -205 -9 -16 -12 -133 -13 -454 l0 -434 34
-34 34 -34 813 0 c757 0 816 1 841 18 18 12 322 363 363 419 1 2 55 12 121 23
378 65 702 202 897 380 l55 50 75 0 c197 0 334 78 406 230 21 46 26 73 29 161
l4 106 46 -13 c61 -19 204 -18 277 2 157 40 270 165 298 327 19 113 -23 255
-98 327 l-33 32 48 63 c64 84 85 148 85 256 0 78 -3 91 -37 160 -20 41 -50 87
-67 103 l-30 29 35 41 c80 94 116 219 95 333 -14 76 -58 167 -102 209 l-28 27
34 38 c180 199 114 515 -133 636 -54 27 -64 28 -197 28 -77 0 -152 -4 -167 -8
l-27 -9 -3 434 -3 433 -32 66 c-39 80 -111 150 -191 187 l-57 27 -915 2 c-512
1 -932 -3 -953 -8z m550 -259 c59 -374 544 -464 721 -133 25 47 51 148 52 196
0 4 108 7 240 7 293 0 323 -8 371 -102 18 -36 19 -90 19 -1814 l0 -1777 -25
-43 c-14 -23 -42 -53 -62 -66 l-38 -23 -873 -3 c-620 -2 -885 1 -915 9 -52 14
-111 72 -126 124 -7 25 -11 149 -11 328 l0 289 -29 29 c-40 40 -89 40 -133 0
l-33 -29 0 -324 c0 -317 1 -324 24 -383 33 -83 133 -183 216 -216 l60 -24 655
-5 655 -5 -90 -46 c-183 -94 -385 -154 -649 -193 -118 -18 -99 -2 -313 -257
l-158 -189 -712 0 -713 0 0 338 0 337 148 202 149 201 6 118 c12 231 60 467
147 719 126 363 122 328 128 1153 3 578 6 692 17 692 8 0 40 -10 72 -21 167
-62 286 -199 333 -385 18 -71 20 -112 20 -484 0 -406 0 -407 23 -440 39 -58
106 -64 153 -13 l24 26 0 1051 c0 703 4 1064 11 1089 12 46 63 105 104 123 22
10 95 13 275 14 l246 0 11 -70z m573 58 c0 -7 -5 -31 -11 -53 -49 -178 -282
-193 -354 -23 -8 21 -15 49 -15 63 l0 25 190 0 c145 0 190 -3 190 -12z m1366
-1150 c54 -37 84 -88 91 -153 8 -63 -32 -145 -88 -182 -38 -25 -53 -28 -139
-31 -121 -5 -152 8 -182 75 -17 38 -20 61 -16 142 6 153 35 180 189 181 93 0
99 -1 145 -32z m-18 -597 c51 -26 87 -73 103 -132 15 -57 7 -103 -30 -161 -42
-66 -93 -88 -205 -88 -105 0 -137 15 -166 75 -39 80 -23 255 26 296 52 43 196
49 272 10z m-43 -592 c149 -41 202 -215 99 -329 -50 -55 -103 -73 -208 -69
-78 4 -87 6 -116 34 -41 40 -53 85 -49 193 4 102 20 134 80 164 39 21 133 24
194 7z m8 -610 c138 -38 190 -217 94 -326 -47 -54 -97 -73 -193 -73 -68 0 -87
4 -115 23 -57 38 -70 77 -67 194 3 114 17 144 79 175 39 20 142 24 202 7z"/>
<path d="M2790 4226 c-71 -16 -112 -38 -162 -88 -56 -56 -88 -132 -95 -222
l-6 -74 -147 -4 c-131 -3 -150 -5 -170 -23 -12 -11 -26 -28 -31 -37 -10 -18
-109 -917 -109 -984 0 -45 23 -80 62 -93 21 -8 258 -11 732 -11 683 0 702 1
734 20 18 11 37 31 42 45 14 38 -85 978 -108 1025 -24 48 -62 59 -213 59
l-126 1 -7 68 c-11 112 -32 160 -100 228 -85 85 -185 115 -296 90z m137 -212
c35 -22 52 -55 59 -117 l7 -57 -132 0 -131 0 0 45 c0 118 105 186 197 129z
m-397 -434 c0 -66 18 -113 49 -130 35 -18 88 -12 118 14 25 21 29 33 33 98 l5
73 125 0 125 0 3 -70 c3 -60 7 -74 29 -97 21 -22 36 -28 69 -28 71 0 104 49
104 156 l0 44 80 0 c55 0 82 -4 85 -12 8 -21 81 -729 76 -733 -2 -3 -262 -5
-578 -5 -445 0 -573 3 -573 12 0 23 71 693 76 716 4 21 9 22 89 22 l85 0 0
-60z"/>
<path d="M1684 2331 c-59 -36 -65 -112 -12 -156 63 -53 158 -11 158 70 0 49
-15 74 -55 91 -44 18 -54 18 -91 -5z"/>
<path d="M2520 2241 c-127 -40 -229 -163 -245 -296 -20 -161 97 -328 260 -370
79 -20 551 -21 636 -1 107 25 190 92 241 195 18 37 22 63 23 136 0 82 -3 96
-33 157 -36 73 -87 124 -161 160 -45 22 -56 23 -371 25 -179 1 -336 -2 -350
-6z m648 -207 c42 -24 65 -63 69 -113 6 -63 -21 -109 -78 -139 -43 -22 -49
-23 -316 -20 -256 3 -273 4 -299 24 -50 37 -69 71 -68 124 1 56 21 92 67 120
30 19 52 20 315 20 241 0 288 -2 310 -16z"/>
</g>
</svg>